<svg width="25" height="25" viewBox="0 0 25 25" fill="none" xmlns="http://www.w3.org/2000/svg">
<g clip-path="url(#clip0_5_194)">
<path d="M11.5456 11.8803C12.037 11.3091 12.3542 10.6089 12.4595 9.86283C12.5648 9.11675 12.4538 8.35612 12.1397 7.67123C11.8257 6.98633 11.3217 6.40593 10.6876 5.99891C10.0535 5.5919 9.31597 5.37536 8.5625 5.375H3.5C3.20163 5.375 2.91548 5.49353 2.7045 5.7045C2.49353 5.91548 2.375 6.20163 2.375 6.5V18.5C2.375 18.7984 2.49353 19.0845 2.7045 19.2955C2.91548 19.5065 3.20163 19.625 3.5 19.625H8.9375C9.83984 19.6244 10.7193 19.3407 11.4519 18.814C12.1846 18.2873 12.7335 17.544 13.0215 16.6888C13.3095 15.8337 13.322 14.9097 13.0572 14.0471C12.7925 13.1845 12.2638 12.4267 11.5456 11.8803ZM4.625 7.625H8.5625C9.01005 7.625 9.43927 7.80279 9.75574 8.11926C10.0722 8.43572 10.25 8.86495 10.25 9.3125C10.25 9.76005 10.0722 10.1893 9.75574 10.5057C9.43927 10.8222 9.01005 11 8.5625 11H4.625V7.625ZM8.9375 17.375H4.625V13.25H8.9375C9.48451 13.25 10.0091 13.4673 10.3959 13.8541C10.7827 14.2409 11 14.7655 11 15.3125C11 15.8595 10.7827 16.3841 10.3959 16.7709C10.0091 17.1577 9.48451 17.375 8.9375 17.375ZM15.125 7.625C15.125 7.32663 15.2435 7.04048 15.4545 6.8295C15.6655 6.61853 15.9516 6.5 16.25 6.5H22.25C22.5484 6.5 22.8345 6.61853 23.0455 6.8295C23.2565 7.04048 23.375 7.32663 23.375 7.625C23.375 7.92337 23.2565 8.20952 23.0455 8.4205C22.8345 8.63147 22.5484 8.75 22.25 8.75H16.25C15.9516 8.75 15.6655 8.63147 15.4545 8.4205C15.2435 8.20952 15.125 7.92337 15.125 7.625ZM19.25 9.875C17.9571 9.875 16.7171 10.3886 15.8029 11.3029C14.8886 12.2171 14.375 13.4571 14.375 14.75C14.375 16.0429 14.8886 17.2829 15.8029 18.1971C16.7171 19.1114 17.9571 19.625 19.25 19.625C19.9874 19.627 20.7154 19.4599 21.3781 19.1366C21.5142 19.074 21.6364 18.9849 21.7376 18.8744C21.8387 18.764 21.9168 18.6345 21.9673 18.4935C22.0177 18.3525 22.0395 18.2028 22.0314 18.0533C22.0232 17.9037 21.9853 17.7573 21.9198 17.6226C21.8544 17.488 21.7627 17.3677 21.6501 17.2689C21.5375 17.1701 21.4064 17.0948 21.2643 17.0474C21.1223 17 20.9722 16.9814 20.8228 16.9927C20.6735 17.0041 20.5279 17.0451 20.3947 17.1134C20.0381 17.2868 19.6465 17.3763 19.25 17.375C18.7533 17.3745 18.267 17.2333 17.8472 16.9679C17.4275 16.7024 17.0915 16.3235 16.8781 15.875H23C23.2984 15.875 23.5845 15.7565 23.7955 15.5455C24.0065 15.3345 24.125 15.0484 24.125 14.75C24.1235 13.4575 23.6094 12.2184 22.6955 11.3045C21.7816 10.3906 20.5425 9.87649 19.25 9.875ZM16.8781 13.625C17.091 13.1761 17.4269 12.7968 17.8467 12.5312C18.2666 12.2656 18.7532 12.1246 19.25 12.1246C19.7468 12.1246 20.2334 12.2656 20.6533 12.5312C21.0731 12.7968 21.409 13.1761 21.6219 13.625H16.8781Z" fill="#F8F8F8"/>
</g>
<defs>
<clipPath id="clip0_5_194">
<rect width="24" height="24" fill="white" transform="translate(0.5 0.5)"/>
</clipPath>
</defs>
</svg>
