<svg width="25" height="25" viewBox="0 0 25 25" fill="none" xmlns="http://www.w3.org/2000/svg">
<path d="M12.5 2.375C10.4975 2.375 8.5399 2.96882 6.87486 4.08137C5.20981 5.19392 3.91206 6.77523 3.14572 8.62533C2.37939 10.4754 2.17888 12.5112 2.56955 14.4753C2.96023 16.4393 3.92454 18.2435 5.34055 19.6595C6.75656 21.0755 8.56066 22.0398 10.5247 22.4305C12.4888 22.8211 14.5246 22.6206 16.3747 21.8543C18.2248 21.0879 19.8061 19.7902 20.9186 18.1251C22.0312 16.4601 22.625 14.5025 22.625 12.5C22.622 9.8156 21.5543 7.24199 19.6562 5.34383C17.758 3.44567 15.1844 2.37798 12.5 2.375ZM20.2934 11.375H20.0009C18.6931 11.3758 17.3901 11.535 16.1206 11.8494C15.8453 11.0856 15.5125 10.3438 15.125 9.63031C16.2546 8.91288 17.2906 8.05789 18.2094 7.085C19.3322 8.2642 20.0606 9.76344 20.2934 11.375ZM16.4375 5.68437C15.6769 6.46482 14.8274 7.15328 13.9063 7.73563C13.081 6.62676 12.1176 5.62775 11.0394 4.76281C12.891 4.41024 14.8077 4.73746 16.4375 5.68437ZM8.51938 5.70969C9.80234 6.54576 10.9393 7.58679 11.885 8.79125C10.1804 9.50841 8.34936 9.8769 6.5 9.875C6.03125 9.875 5.5625 9.85063 5.09938 9.80469C5.7313 8.08542 6.93955 6.6383 8.51844 5.70969H8.51938ZM4.625 12.5C4.625 12.3378 4.63157 12.1775 4.64094 12.0181C5.25811 12.0889 5.87879 12.1246 6.5 12.125C8.79002 12.1269 11.0541 11.6405 13.1413 10.6981C13.4651 11.2907 13.7446 11.9064 13.9775 12.5403C13.2829 12.819 12.6088 13.146 11.96 13.5191C9.98137 14.6614 8.26641 16.209 6.9275 18.0603C6.19699 17.3304 5.6176 16.4636 5.22251 15.5095C4.82741 14.5553 4.62437 13.5327 4.625 12.5ZM8.72844 19.4113C9.88436 17.803 11.3691 16.4588 13.0841 15.4681C13.5685 15.1899 14.0695 14.9413 14.5841 14.7238C14.7504 15.5889 14.8342 16.4678 14.8344 17.3488C14.8351 18.2724 14.7441 19.1938 14.5625 20.0994C12.6023 20.6327 10.5117 20.3861 8.72938 19.4113H8.72844ZM17.0056 18.9528C17.0581 18.4203 17.0863 17.8841 17.0863 17.3459C17.0856 16.2262 16.9687 15.1096 16.7375 14.0141C17.8059 13.7564 18.901 13.6258 20 13.625H20.2916C20.1368 14.6904 19.7653 15.7128 19.2002 16.6291C18.6351 17.5454 17.8882 18.3363 17.0056 18.9528Z" fill="#F8F8F8"/>
</svg>
