<svg width="25" height="25" viewBox="0 0 25 25" fill="none" xmlns="http://www.w3.org/2000/svg">
<path d="M12.5 8C11.61 8 10.74 8.26392 9.99993 8.75839C9.25991 9.25285 8.68314 9.95566 8.34254 10.7779C8.00195 11.6002 7.91283 12.505 8.08647 13.3779C8.2601 14.2508 8.68868 15.0526 9.31802 15.682C9.94736 16.3113 10.7492 16.7399 11.6221 16.9135C12.495 17.0872 13.3998 16.9981 14.2221 16.6575C15.0443 16.3169 15.7471 15.7401 16.2416 15.0001C16.7361 14.26 17 13.39 17 12.5C16.9988 11.3069 16.5243 10.163 15.6806 9.31939C14.837 8.47575 13.6931 8.00124 12.5 8ZM12.5 14.75C12.055 14.75 11.62 14.618 11.25 14.3708C10.88 14.1236 10.5916 13.7722 10.4213 13.361C10.251 12.9499 10.2064 12.4975 10.2932 12.061C10.38 11.6246 10.5943 11.2237 10.909 10.909C11.2237 10.5943 11.6246 10.38 12.061 10.2932C12.4975 10.2064 12.9499 10.251 13.361 10.4213C13.7722 10.5916 14.1236 10.88 14.3708 11.25C14.618 11.62 14.75 12.055 14.75 12.5C14.75 13.0967 14.5129 13.669 14.091 14.091C13.669 14.5129 13.0967 14.75 12.5 14.75ZM17 2.375H8C6.50869 2.37674 5.07896 2.96993 4.02444 4.02444C2.96993 5.07896 2.37674 6.50869 2.375 8V17C2.37674 18.4913 2.96993 19.921 4.02444 20.9756C5.07896 22.0301 6.50869 22.6233 8 22.625H17C18.4913 22.6233 19.921 22.0301 20.9756 20.9756C22.0301 19.921 22.6233 18.4913 22.625 17V8C22.6233 6.50869 22.0301 5.07896 20.9756 4.02444C19.921 2.96993 18.4913 2.37674 17 2.375ZM20.375 17C20.375 17.8951 20.0194 18.7535 19.3865 19.3865C18.7535 20.0194 17.8951 20.375 17 20.375H8C7.10489 20.375 6.24645 20.0194 5.61351 19.3865C4.98058 18.7535 4.625 17.8951 4.625 17V8C4.625 7.10489 4.98058 6.24645 5.61351 5.61351C6.24645 4.98058 7.10489 4.625 8 4.625H17C17.8951 4.625 18.7535 4.98058 19.3865 5.61351C20.0194 6.24645 20.375 7.10489 20.375 8V17ZM18.875 7.625C18.875 7.92167 18.787 8.21168 18.6222 8.45835C18.4574 8.70503 18.2231 8.89729 17.949 9.01082C17.6749 9.12435 17.3733 9.15406 17.0824 9.09618C16.7914 9.0383 16.5241 8.89544 16.3143 8.68566C16.1046 8.47588 15.9617 8.20861 15.9038 7.91764C15.8459 7.62666 15.8756 7.32506 15.9892 7.05097C16.1027 6.77689 16.295 6.54262 16.5416 6.3778C16.7883 6.21297 17.0783 6.125 17.375 6.125C17.7728 6.125 18.1544 6.28304 18.4357 6.56434C18.717 6.84564 18.875 7.22718 18.875 7.625Z" fill="#F8F8F8"/>
</svg>
