<svg width="25" height="25" viewBox="0 0 25 25" fill="none" xmlns="http://www.w3.org/2000/svg">
<path fill-rule="evenodd" clip-rule="evenodd" d="M10.1861 8.7721H13.5287V10.4371C14.0102 9.4795 15.245 8.6191 17.0999 8.6191C20.6558 8.6191 21.5 10.5253 21.5 14.0227V20.5H17.9V14.8192C17.9 12.8275 17.4185 11.7043 16.1927 11.7043C14.4926 11.7043 13.7861 12.9148 13.7861 14.8183V20.5H10.1861V8.7721ZM4.013 20.347H7.613V8.6191H4.013V20.347ZM8.1287 4.795C8.12883 5.09675 8.06899 5.39551 7.95265 5.67393C7.83631 5.95235 7.66579 6.20486 7.451 6.4168C7.01576 6.84936 6.42663 7.09149 5.813 7.09C5.20045 7.08959 4.61268 6.84808 4.1768 6.4177C3.96279 6.20504 3.79285 5.95224 3.67671 5.67379C3.56057 5.39534 3.50052 5.0967 3.5 4.795C3.5 4.1857 3.743 3.6025 4.1777 3.1723C4.6132 2.74134 5.20122 2.49973 5.8139 2.5C6.4277 2.5 7.0163 2.7421 7.451 3.1723C7.8848 3.6025 8.1287 4.1857 8.1287 4.795Z" fill="#F8F8F8"/>
</svg>
