<svg width="61" height="60" viewBox="0 0 61 60" fill="none" xmlns="http://www.w3.org/2000/svg">
<path fill-rule="evenodd" clip-rule="evenodd" d="M10.5 10C9.11929 10 8 11.1193 8 12.5V37.5C8 38.8807 9.11929 40 10.5 40H50.5C51.8807 40 53 38.8807 53 37.5V12.5C53 11.1193 51.8807 10 50.5 10H10.5ZM3 12.5C3 8.35786 6.35786 5 10.5 5H50.5C54.6421 5 58 8.35786 58 12.5V37.5C58 41.6421 54.6421 45 50.5 45H10.5C6.35786 45 3 41.6421 3 37.5V12.5Z" fill="#8C041C"/>
<path fill-rule="evenodd" clip-rule="evenodd" d="M18 52.5C18 51.1193 19.1193 50 20.5 50H40.5C41.8807 50 43 51.1193 43 52.5C43 53.8807 41.8807 55 40.5 55H20.5C19.1193 55 18 53.8807 18 52.5Z" fill="#8C041C"/>
<path fill-rule="evenodd" clip-rule="evenodd" d="M30.5 40C31.8807 40 33 41.1193 33 42.5V52.5C33 53.8807 31.8807 55 30.5 55C29.1193 55 28 53.8807 28 52.5V42.5C28 41.1193 29.1193 40 30.5 40Z" fill="#8C041C"/>
</svg>
