<svg width="61" height="60" viewBox="0 0 61 60" fill="none" xmlns="http://www.w3.org/2000/svg">
<path fill-rule="evenodd" clip-rule="evenodd" d="M18 7.5C16.6193 7.5 15.5 8.61929 15.5 10V50C15.5 51.3807 16.6193 52.5 18 52.5H43C44.3807 52.5 45.5 51.3807 45.5 50V10C45.5 8.61929 44.3807 7.5 43 7.5H18ZM10.5 10C10.5 5.85786 13.8579 2.5 18 2.5H43C47.1421 2.5 50.5 5.85786 50.5 10V50C50.5 54.1421 47.1421 57.5 43 57.5H18C13.8579 57.5 10.5 54.1421 10.5 50V10Z" fill="#8C041C"/>
<path fill-rule="evenodd" clip-rule="evenodd" d="M28 45C28 43.6193 29.1193 42.5 30.5 42.5H30.525C31.9057 42.5 33.025 43.6193 33.025 45C33.025 46.3807 31.9057 47.5 30.525 47.5H30.5C29.1193 47.5 28 46.3807 28 45Z" fill="#8C041C"/>
</svg>
