<svg width="35" height="48" viewBox="0 0 35 48" fill="none" xmlns="http://www.w3.org/2000/svg">
<g clip-path="url(#clip0_7_424)">
<path d="M17.245 47.8787L3.39251 44.0331L0.305481 9.4093H34.2259L31.1357 44.0278L17.245 47.8787Z" fill="#264DE4"/>
<path d="M28.4902 41.8235L31.1308 12.2403H17.2657V44.9352L28.4902 41.8235Z" fill="#2965F1"/>
<path d="M7.38236 25.0818L7.76291 29.3283H17.2657V25.0818H7.38236ZM6.61755 16.4869L7.00355 20.7333H17.2657V16.4869H6.61755ZM17.2657 36.1104L17.2471 36.1153L12.5178 34.8383L12.2155 31.4516H7.95265L8.54753 38.1192L17.2462 40.5338L17.2657 40.5285V36.1104Z" fill="#EBEBEB"/>
<path d="M8.28851 0H13.4316V2.15083H10.4393V4.30165H13.4318V6.45234H8.28851V0ZM14.4603 0H19.6035V1.87027H16.6111V2.2443H19.6035V6.54595H14.4604V4.58194H17.4528V4.20791H14.4602L14.4603 0ZM20.6322 0H25.7754V1.87027H22.783V2.2443H25.7754V6.54595H20.6322V4.58194H23.6246V4.20791H20.6324V0H20.6322Z" fill="black"/>
<path d="M27.122 25.0818L27.8885 16.4869H17.2511V20.7333H23.2348L22.8484 25.0818H17.2511V29.3283H22.4802L21.9872 34.8356L17.251 36.114V40.5318L25.9565 38.1192L26.0203 37.4017L27.0184 26.2221L27.122 25.0818Z" fill="white"/>
</g>
<defs>
<clipPath id="clip0_7_424">
<rect width="34.0388" height="48" fill="white" transform="translate(0.246338)"/>
</clipPath>
</defs>
</svg>
