<svg width="35" height="48" viewBox="0 0 35 48" fill="none" xmlns="http://www.w3.org/2000/svg">
<path d="M33.9796 9.4093L30.8894 44.0278L16.9986 47.8787L3.14617 44.0331L0.0591431 9.4093H33.9796Z" fill="#E44D26"/>
<path d="M17.0194 44.9352L28.2438 41.8235L30.8845 12.2403H17.0194V44.9352Z" fill="#F16529"/>
<path d="M11.0121 20.7333H17.0194V16.4869H6.37122L6.4728 17.6261L7.51657 29.3283H17.0194V25.0818H11.4002L11.0121 20.7333ZM11.9691 31.4516H7.70631L8.30119 38.1192L16.9998 40.5338L17.0194 40.5285V36.1104L17.0008 36.1153L12.2715 34.8383L11.9691 31.4516Z" fill="#EBEBEB"/>
<path d="M3.21509 0H5.37309V2.13208H7.34721V0H9.50535V6.45647H7.34734V4.29447H5.37323V6.45647H3.21522L3.21509 0ZM12.3431 2.14112H10.4435V0H16.4022V2.14112H14.5015V6.45647H12.3435V2.14112H12.3431ZM17.3478 0H19.598L20.9821 2.26863L22.365 0H24.616V6.45647H22.4668V3.25629L20.9821 5.55191H20.9449L19.4593 3.25629V6.45647H17.3478V0ZM25.69 0H27.8487V4.32239H30.8834V6.45647H25.6899V0H25.69Z" fill="black"/>
<path d="M17.0048 29.3283H22.2338L21.7408 34.8356L17.0046 36.114V40.5318L25.7102 38.1192L25.774 37.4017L26.772 26.2221L26.8756 25.0818H17.0048V29.3283ZM17.0048 20.723V20.7333H27.262L27.3471 19.7789L27.5407 17.6261L27.6422 16.4869H17.0048V20.723Z" fill="white"/>
</svg>
