<svg width="43" height="48" viewBox="0 0 43 48" fill="none" xmlns="http://www.w3.org/2000/svg">
<g clip-path="url(#clip0_7_571)">
<path d="M21.3912 47.9111C20.731 47.9111 20.1148 47.735 19.5426 47.4269L13.6884 43.9497C12.8081 43.4655 13.2483 43.2895 13.5124 43.2014C14.7007 42.8053 14.9208 42.7173 16.1532 42.0129C16.2854 41.9249 16.4615 41.9689 16.5933 42.0569L21.0831 44.7419C21.2591 44.8299 21.4792 44.8299 21.6112 44.7419L39.1736 34.5744C39.3496 34.4864 39.4377 34.3103 39.4377 34.0902V13.7989C39.4377 13.5788 39.3496 13.4027 39.1736 13.3147L21.6112 3.19102C21.4352 3.10299 21.2151 3.10299 21.0831 3.19102L3.52072 13.3149C3.34466 13.4029 3.25664 13.623 3.25664 13.799V34.0902C3.25664 34.2663 3.34466 34.4864 3.52072 34.5744L8.31856 37.3473C10.9155 38.6677 12.5439 37.1272 12.5439 35.5867V15.5594C12.5439 15.2953 12.7641 15.0312 13.0722 15.0312H15.3171C15.5812 15.0312 15.8453 15.2513 15.8453 15.5594V35.5865C15.8453 39.0638 13.9525 41.0884 10.6513 41.0884C9.63898 41.0884 8.84673 41.0884 6.60202 39.9881L1.98023 37.3473C0.835874 36.6869 0.131653 35.4545 0.131653 34.1341V13.843C0.131653 12.5226 0.835874 11.2902 1.98023 10.6299L19.5426 0.462328C20.6429 -0.153865 22.1394 -0.153865 23.2397 0.462328L40.8021 10.6299C41.9465 11.2901 42.6507 12.5225 42.6507 13.843V34.1342C42.6507 35.4547 41.9465 36.687 40.8021 37.3473L23.2397 47.5151C22.6676 47.7792 22.0074 47.9112 21.3912 47.9112V47.9111ZM26.805 33.958C19.1023 33.958 17.5178 30.4369 17.5178 27.4438C17.5178 27.1797 17.7379 26.9156 18.0459 26.9156H20.3347C20.5988 26.9156 20.819 27.0917 20.819 27.3558C21.1711 29.6885 22.1834 30.833 26.8491 30.833C30.5464 30.833 32.131 29.9968 32.131 28.0162C32.131 26.8716 31.6909 26.0354 25.9248 25.463C21.1271 24.9789 18.134 23.9225 18.134 20.0933C18.134 16.5279 21.1269 14.4152 26.1448 14.4152C31.7788 14.4152 34.5518 16.3518 34.9039 20.5773C34.9039 20.7094 34.8599 20.8414 34.7719 20.9734C34.6838 21.0615 34.5518 21.1495 34.4198 21.1495H32.131C31.9108 21.1495 31.6909 20.9734 31.6467 20.7534C31.1186 18.3326 29.7541 17.5404 26.1448 17.5404C22.0956 17.5404 21.6112 18.9488 21.6112 20.0051C21.6112 21.2817 22.1834 21.6777 27.6413 22.3819C33.0553 23.0861 35.6081 24.0986 35.6081 27.8839C35.5641 31.7573 32.3951 33.958 26.805 33.958Z" fill="#539E43"/>
</g>
<defs>
<clipPath id="clip0_7_571">
<rect width="42.519" height="48" fill="white" transform="translate(0.131653)"/>
</clipPath>
</defs>
</svg>
