<svg width="29" height="42" viewBox="0 0 29 42" fill="none" xmlns="http://www.w3.org/2000/svg">
<g clip-path="url(#clip0_7_449)">
<path d="M7.83658 42C11.7006 42 14.8366 38.864 14.8366 35V28H7.83658C3.97258 28 0.836578 31.136 0.836578 35C0.836578 38.864 3.97258 42 7.83658 42Z" fill="#0ACF83"/>
<path d="M0.836578 21C0.836578 17.136 3.97258 14 7.83658 14H14.8366V28H7.83658C3.97258 28 0.836578 24.864 0.836578 21Z" fill="#A259FF"/>
<path d="M0.836578 7C0.836578 3.136 3.97258 0 7.83658 0H14.8366V14H7.83658C3.97258 14 0.836578 10.864 0.836578 7Z" fill="#F24E1E"/>
<path d="M14.8366 0H21.8366C25.7006 0 28.8366 3.136 28.8366 7C28.8366 10.864 25.7006 14 21.8366 14H14.8366V0Z" fill="#FF7262"/>
<path d="M28.8366 21C28.8366 24.864 25.7006 28 21.8366 28C17.9726 28 14.8366 24.864 14.8366 21C14.8366 17.136 17.9726 14 21.8366 14C25.7006 14 28.8366 17.136 28.8366 21Z" fill="#1ABCFE"/>
</g>
<defs>
<clipPath id="clip0_7_449">
<rect width="28" height="42" fill="white" transform="translate(0.836578)"/>
</clipPath>
</defs>
</svg>
