<svg width="41" height="42" viewBox="0 0 41 42" fill="none" xmlns="http://www.w3.org/2000/svg">
<g clip-path="url(#clip0_7_477)">
<path d="M3.4025 1.80818L26.5962 0.0952733C29.4452 -0.149204 30.1772 0.0156614 31.9685 1.31782L39.3722 6.53365C40.5935 7.43054 41 7.67518 41 8.65183V37.2568C41 39.0495 40.3489 40.1098 38.0701 40.272L11.1361 41.9025C9.42589 41.9835 8.61144 41.7391 7.7158 40.5975L2.26379 33.5082C1.28588 32.2032 0.880615 31.2264 0.880615 30.0848V4.65854C0.880615 3.19293 1.53177 1.97039 3.4025 1.80818Z" fill="white"/>
<path d="M26.5962 0.0952733L3.4025 1.80818C1.53177 1.97039 0.880615 3.19293 0.880615 4.65854V30.085C0.880615 31.2265 1.28573 32.2032 2.26379 33.5082L7.7158 40.5975C8.61144 41.7391 9.42589 41.9835 11.1361 41.9025L38.0701 40.272C40.3475 40.1098 41 39.0495 41 37.2568V8.65183C41 7.72548 40.6339 7.45859 39.5567 6.6678L39.371 6.53365L31.9685 1.31782C30.1772 0.0156614 29.4453 -0.149204 26.5962 0.0952733ZM11.7453 8.18372C9.54609 8.33182 9.04727 8.36536 7.79824 7.34952L4.62238 4.82341C4.29954 4.4965 4.46159 4.08841 5.27479 4.00739L27.5715 2.37832C29.4438 2.21486 30.419 2.86727 31.1512 3.43741L34.9752 6.20815C35.1387 6.29043 35.5453 6.77813 35.0562 6.77813L12.0304 8.16413L11.7453 8.18372ZM9.18141 37.0123V12.7288C9.18141 11.6683 9.50691 11.1794 10.4822 11.0969L36.9285 9.54872C37.8256 9.4677 38.2308 10.0377 38.2308 11.0969V35.2182C38.2308 36.2787 38.0672 37.1756 36.603 37.2568L11.2954 38.7238C9.83116 38.8049 9.18141 38.3173 9.18141 37.0123ZM34.1636 14.0308C34.3256 14.7644 34.1636 15.498 33.43 15.5818L32.2103 15.8235V33.7525C31.1512 34.3225 30.1759 34.6481 29.3612 34.6481C28.0592 34.6481 27.7335 34.24 26.7583 33.0189L18.7817 20.4692V32.611L21.3048 33.1823C21.3048 33.1823 21.3048 34.6495 19.2693 34.6495L13.6566 34.975C13.4932 34.6481 13.6566 33.8335 14.2255 33.6715L15.6909 33.2648V17.2111L13.6568 17.0462C13.4932 16.3128 13.8997 15.2535 15.0399 15.1711L21.0619 14.766L29.3613 27.4777V16.2317L27.246 15.9885C27.0825 15.0901 27.7335 14.4376 28.5467 14.358L34.1634 14.031L34.1636 14.0308Z" fill="black"/>
</g>
<defs>
<clipPath id="clip0_7_477">
<rect width="40.1194" height="42" fill="white" transform="translate(0.880615)"/>
</clipPath>
</defs>
</svg>
