<svg width="55" height="48" viewBox="0 0 55 48" fill="none" xmlns="http://www.w3.org/2000/svg">
<g clip-path="url(#clip0_7_545)">
<path d="M45.1223 15.5419C44.5488 15.3451 43.9703 15.1628 43.3876 14.9951C43.4855 14.5951 43.5756 14.2 43.6556 13.8118C44.9689 7.43681 44.1103 2.30102 41.1779 0.610069C38.3663 -1.01098 33.7682 0.679332 29.1244 4.72081C28.6668 5.11982 28.2193 5.53034 27.7823 5.95196C27.4898 5.6716 27.1922 5.39667 26.8895 5.12733C22.0225 0.806069 17.1442 -1.01519 14.215 0.680595C11.4059 2.3067 10.5741 7.1347 11.7564 13.1764C11.8741 13.7747 12.0069 14.37 12.1548 14.9616C11.4642 15.1579 10.7979 15.3667 10.1602 15.589C4.45412 17.5785 0.81012 20.6962 0.81012 23.9301C0.81012 27.2701 4.72212 30.6202 10.6653 32.6515C11.1471 32.8156 11.6329 32.9675 12.1223 33.1073C11.9634 33.7445 11.8223 34.386 11.6992 35.0311C10.572 40.968 11.4522 45.6819 14.2537 47.2976C17.1472 48.9663 22.0036 47.2513 26.7322 43.1176C27.1157 42.7816 27.4907 42.436 27.8569 42.0812C28.33 42.5378 28.8158 42.981 29.3137 43.4105C33.8943 47.352 38.4181 48.9435 41.2169 47.3233C44.1076 45.6499 45.0472 40.5859 43.8274 34.4248C43.7313 33.9421 43.6235 33.4618 43.5042 32.9844C43.8453 32.8833 44.18 32.7793 44.5063 32.6711C50.6849 30.6242 54.7049 27.3147 54.7049 23.9301C54.7049 20.6844 50.9432 17.5456 45.1223 15.5419ZM43.7823 30.4859C43.4876 30.5833 43.1853 30.6774 42.8771 30.769C42.195 28.6096 41.2745 26.3136 40.148 23.9412C41.223 21.6254 42.108 19.3587 42.771 17.2134C43.3223 17.373 43.8573 17.5412 44.3731 17.7187C49.3604 19.4358 52.4025 21.9741 52.4025 23.9301C52.4025 26.0134 49.1171 28.7181 43.7823 30.4859ZM41.5689 34.872C42.1082 37.5962 42.1851 40.0593 41.8278 41.985C41.507 43.7153 40.8615 44.8688 40.0632 45.3309C38.3649 46.3141 34.7326 45.0362 30.8154 41.6652C30.3523 41.2659 29.9004 40.8538 29.4602 40.4294C30.979 38.7686 32.4966 36.8379 33.9779 34.6934C36.5834 34.4623 39.0449 34.0842 41.2771 33.5682C41.3846 34.0004 41.4819 34.4351 41.5689 34.872ZM19.184 45.161C17.5246 45.7469 16.203 45.7638 15.404 45.3031C13.704 44.3227 12.9973 40.5376 13.9613 35.4606C14.0759 34.8607 14.2071 34.264 14.3548 33.6713C16.5623 34.1598 19.0059 34.5109 21.6175 34.7227C23.1089 36.821 24.6703 38.7496 26.244 40.4385C25.9096 40.7621 25.5672 41.0774 25.2173 41.3842C23.1261 43.212 21.0308 44.5088 19.184 45.161ZM11.4101 30.473C8.78212 29.5747 6.6118 28.4073 5.12423 27.1334C3.78738 25.9888 3.11265 24.8522 3.11265 23.9301C3.11265 21.9675 6.03833 19.4644 10.9181 17.7631C11.5103 17.5568 12.1301 17.3621 12.7733 17.1793C13.4478 19.373 14.3324 21.6667 15.4 23.9861C14.3185 26.3398 13.4213 28.6701 12.7402 30.8896C12.2935 30.7617 11.85 30.6228 11.4101 30.473ZM14.016 12.7341C13.0032 7.55786 13.6758 3.65323 15.3686 2.67323C17.1716 1.62944 21.1585 3.11765 25.3609 6.84902C25.6349 7.09289 25.9045 7.3417 26.1695 7.59533C24.6036 9.2768 23.0564 11.1911 21.5783 13.277C19.0436 13.512 16.6173 13.8892 14.3865 14.3947C14.2491 13.8444 14.1256 13.2906 14.016 12.7341ZM37.2638 18.4747C36.7369 17.5646 36.1905 16.6659 35.6249 15.7793C37.3444 15.9968 38.992 16.2854 40.5392 16.6383C40.0748 18.1271 39.4958 19.6835 38.8143 21.2793C38.3162 20.3342 37.7993 19.3992 37.2638 18.4747ZM27.7834 9.2408C28.8453 10.3913 29.9089 11.6758 30.955 13.0694C28.8329 12.9692 26.7072 12.9688 24.5851 13.0682C25.6322 11.6873 26.7049 10.4046 27.7834 9.2408ZM18.2421 18.4905C17.7134 19.4075 17.2061 20.3367 16.7206 21.2774C16.0503 19.6873 15.4766 18.1238 15.0082 16.6139C16.5459 16.2699 18.1857 15.9886 19.8943 15.7751C19.3224 16.6671 18.7715 17.5726 18.2421 18.4905ZM19.9434 32.2488C18.1781 32.0518 16.5137 31.785 14.9764 31.4503C15.4522 29.9134 16.0385 28.3166 16.7234 26.6924C17.2107 27.6338 17.7201 28.5636 18.2512 29.481C18.7973 30.4242 19.3628 31.348 19.9434 32.2488ZM27.847 38.7814C26.7556 37.6042 25.6672 36.3016 24.6042 34.9008C25.6362 34.9412 26.6882 34.9619 27.7575 34.9619C28.856 34.9619 29.9419 34.9372 31.0108 34.8896C29.9613 36.3158 28.9017 37.6202 27.847 38.7814ZM38.836 26.6094C39.5564 28.2515 40.1636 29.84 40.6457 31.3505C39.0832 31.7071 37.396 31.9943 35.6183 32.2075C36.188 31.3045 36.7396 30.3902 37.2729 29.4652C37.815 28.525 38.3362 27.5728 38.836 26.6094ZM35.2785 28.3149C34.4622 29.7331 33.5999 31.1244 32.6931 32.4865C31.0505 32.6028 29.4042 32.6606 27.7575 32.6598C26.0802 32.6598 24.4489 32.6075 22.8779 32.5056C21.9474 31.1467 21.0687 29.753 20.2436 28.3275C19.4224 26.9097 18.6555 25.4611 17.9442 23.985C18.6537 22.5086 19.4184 21.0593 20.2369 19.6404L20.2366 19.6406C21.0548 18.2213 21.9265 16.8335 22.8499 15.4804C24.4526 15.3591 26.0962 15.296 27.7573 15.296C29.4259 15.296 31.0718 15.3598 32.6741 15.4819C33.5882 16.833 34.4544 18.216 35.271 19.6282C36.0921 21.044 36.867 22.4862 37.5943 23.9524C36.8744 25.4336 36.102 26.8887 35.2785 28.3149ZM40.028 2.60459C41.8326 3.64544 42.5345 7.8427 41.4006 13.3469C41.3282 13.6981 41.247 14.0558 41.1585 14.4185C38.9223 13.9023 36.4943 13.5185 33.9522 13.28C32.4714 11.1711 30.9369 9.25386 29.3964 7.59407C29.8001 7.20491 30.2135 6.82585 30.636 6.45723C34.615 2.9947 38.3337 1.62754 40.028 2.60459ZM27.7575 19.1174C30.4154 19.1174 32.5701 21.2722 32.5701 23.9301C32.5701 26.588 30.4154 28.7427 27.7575 28.7427C25.0996 28.7427 22.9449 26.588 22.9449 23.9301C22.9449 21.2722 25.0996 19.1174 27.7575 19.1174Z" fill="#00D8FF"/>
</g>
<defs>
<clipPath id="clip0_7_545">
<rect width="53.8947" height="48" fill="white" transform="translate(0.81012)"/>
</clipPath>
</defs>
</svg>
