<svg width="43" height="42" viewBox="0 0 43 42" fill="none" xmlns="http://www.w3.org/2000/svg">
<g clip-path="url(#clip0_7_433)">
<path d="M0.0828857 0H42.0829V42H0.0828857V0Z" fill="#F7DF1E"/>
<path d="M11.1263 35.0982L14.3402 33.1531C14.9604 34.2525 15.5245 35.1827 16.8775 35.1827C18.1744 35.1827 18.9922 34.6754 18.9922 32.7021V19.2821H22.9391V32.7579C22.9391 36.8458 20.5428 38.7066 17.0466 38.7066C13.8892 38.7066 12.0565 37.0714 11.1261 35.0979M25.0829 34.6753L28.2966 32.8146C29.1426 34.1962 30.2422 35.2111 32.1873 35.2111C33.8228 35.2111 34.8656 34.3934 34.8656 33.2656C34.8656 31.9124 33.7943 31.433 31.9899 30.6439L31.0034 30.2206C28.1558 29.0087 26.2669 27.4862 26.2669 24.2722C26.2669 21.3119 28.5223 19.0563 32.0465 19.0563C34.5557 19.0563 36.3601 19.9305 37.6568 22.214L34.5836 24.1877C33.9068 22.9755 33.1741 22.4962 32.0464 22.4962C30.8904 22.4962 30.1574 23.2293 30.1574 24.1877C30.1574 25.3718 30.8904 25.8513 32.5819 26.5843L33.5685 27.0071C36.9236 28.4451 38.8125 29.911 38.8125 33.2094C38.8125 36.762 36.0214 38.7071 32.2718 38.7071C28.6068 38.7071 26.2386 36.9592 25.0827 34.6754" fill="black"/>
</g>
<defs>
<clipPath id="clip0_7_433">
<rect width="42" height="42" fill="white" transform="translate(0.0828857)"/>
</clipPath>
</defs>
</svg>
