<svg width="117" height="32" viewBox="0 0 117 32" fill="none" xmlns="http://www.w3.org/2000/svg">
<path d="M3.70379 10.536V0.255727H0.672882V13.4342H8.42997V10.536H3.70379ZM20.3824 0.255727H16.9405L14.4233 5.33618L11.9061 0.255727H8.46422L12.9164 8.37081V13.4342H15.9302V8.37081L20.3824 0.255727ZM26.3244 10.536L31.393 2.59137V0.255727H22.5057V3.15397H27.4716L22.403 11.0986V13.4342H31.4786V10.536H26.3244ZM38.0884 10.536L43.1571 2.59137V0.255727H34.2698V3.15397H39.2357L34.1842 11.0986V13.4342H43.2598V10.536H38.0884ZM54.9211 13.4342H58.226L53.7396 0.255727H49.8696L45.3832 13.4342H48.688L49.3388 11.3543H54.2704L54.9211 13.4342ZM50.2463 8.54129L51.8046 3.69952L53.3629 8.54129H50.2463ZM68.2948 0.255727V7.41609L63.1919 0.255727H60.9316V13.4342H63.9454V6.27384L69.0483 13.4342H71.3257V0.255727H68.2948ZM80.4527 0.255727H75.1443V13.4342H80.4527C84.1001 13.4342 86.8742 10.5701 86.8742 6.83644C86.8742 3.11987 84.1001 0.255727 80.4527 0.255727ZM80.4527 10.536H78.1753V3.15397H80.4527C82.5247 3.15397 83.9631 4.58604 83.9631 6.83644C83.9631 9.10389 82.5247 10.536 80.4527 10.536ZM97.0971 13.4342H100.333L97.5252 8.59244C98.9807 7.85935 99.9567 6.39318 99.9567 4.77358C99.9567 2.26745 97.9361 0.255727 95.4189 0.255727H90.1277V13.4342H93.1586V9.10389H94.597L97.0971 13.4342ZM93.1586 3.08578H95.4189C96.258 3.08578 96.943 3.81886 96.943 4.77358C96.943 5.72829 96.258 6.46138 95.4189 6.46138H93.1586V3.08578ZM109.443 13.6899C113.245 13.6899 116.327 10.7235 116.327 6.83644C116.327 2.96644 113.245 0 109.443 0C105.642 0 102.56 2.96644 102.56 6.83644C102.56 10.7235 105.642 13.6899 109.443 13.6899ZM109.443 10.7576C107.286 10.7576 105.59 9.18913 105.59 6.83644C105.59 4.48375 107.286 2.93234 109.443 2.93234C111.601 2.93234 113.296 4.48375 113.296 6.83644C113.296 9.18913 111.601 10.7576 109.443 10.7576Z" fill="#F8F8F8"/>
<path d="M4.49149 22.6063C5.92989 22.6063 7.07718 22.9984 7.91625 23.7997C8.73819 24.6009 9.16629 25.7432 9.16629 27.2264C9.16629 28.7096 8.73819 29.8519 7.91625 30.6532C7.07718 31.4544 5.92989 31.8636 4.49149 31.8636H1.47769V22.6063H4.49149ZM4.59422 30.8066C5.6559 30.8066 6.47785 30.4827 7.07718 29.8519C7.67651 29.2211 7.96762 28.3516 7.96762 27.2264C7.96762 26.1183 7.67651 25.2317 7.07718 24.6009C6.47785 23.9701 5.6559 23.6633 4.59422 23.6633H2.60786V30.8066H4.59422ZM21.6495 22.6063V28.4028C21.6495 29.5961 21.3413 30.4827 20.7077 31.0964C20.0741 31.6931 19.1837 32 18.0022 32C16.8378 32 15.9473 31.6931 15.3137 31.0964C14.6802 30.4827 14.3548 29.5961 14.3548 28.4028V22.6063H15.485V28.13C15.485 29.0847 15.6905 29.8007 16.1014 30.261C16.5124 30.7213 17.146 30.943 18.0022 30.943C18.8755 30.943 19.5091 30.7213 19.92 30.261C20.331 29.8007 20.5194 29.0847 20.5194 28.13V22.6063H21.6495ZM34.5095 31.8636H33.3109L32.3177 29.2893H28.1052L27.1292 31.8636H25.9476L29.5607 22.6063H30.8964L34.5095 31.8636ZM28.5162 28.2323H31.9067L30.2114 23.6803L28.5162 28.2323ZM40.4172 30.8066H45.7427V31.8636H39.2871V22.6063H40.4172V30.8066ZM58.0205 31.8636H56.839L55.8458 29.2893H51.6333L50.6573 31.8636H49.4586L53.0889 22.6063H54.4245L58.0205 31.8636ZM52.0443 28.2323H55.4348L53.7396 23.6803L52.0443 28.2323ZM71.8052 22.6063V31.8636H70.7435V26.033L70.8634 23.5951H70.8463L67.7982 31.8636H66.8393L63.7741 23.5951H63.757L63.894 26.033V31.8636H62.8152V22.6063H64.5618L66.5995 28.2323L67.3016 30.5338H67.3359L68.0379 28.2323L70.0757 22.6063H71.8052ZM81.4973 22.4699C82.3877 22.4699 83.1411 22.6574 83.7918 23.0495C84.4254 23.4416 84.922 23.9872 85.2816 24.6862C85.6241 25.4022 85.8125 26.2546 85.8125 27.2264C85.8125 28.2152 85.6241 29.0506 85.2816 29.7666C84.922 30.4827 84.4254 31.0282 83.7918 31.4203C83.1411 31.7954 82.3877 32 81.4973 32C80.6239 32 79.8534 31.7954 79.2027 31.4203C78.5691 31.0282 78.0725 30.4827 77.7129 29.7666C77.3704 29.0506 77.1821 28.2152 77.1821 27.2264C77.1821 26.2546 77.3704 25.4022 77.7129 24.6862C78.0725 23.9872 78.5691 23.4416 79.2027 23.0495C79.8534 22.6574 80.6239 22.4699 81.4973 22.4699ZM81.4973 23.5098C80.8637 23.5098 80.2986 23.6633 79.8363 23.9531C79.3739 24.26 79.0143 24.6691 78.7574 25.2317C78.5006 25.7943 78.3807 26.4592 78.3807 27.2264C78.3807 28.0106 78.5006 28.6755 78.7574 29.2211C79.0143 29.7837 79.3739 30.2099 79.8363 30.4997C80.2986 30.8066 80.8637 30.943 81.4973 30.943C82.148 30.943 82.6959 30.8066 83.1754 30.4997C83.6377 30.2099 83.9973 29.7837 84.2371 29.2211C84.4939 28.6755 84.6309 28.0106 84.6309 27.2264C84.6309 26.4592 84.4939 25.7943 84.2371 25.2317C83.9973 24.6691 83.6377 24.26 83.1754 23.9531C82.6959 23.6633 82.148 23.5098 81.4973 23.5098Z" fill="#F8F8F8"/>
</svg>
